<svg xmlns="http://www.w3.org/2000/svg" width="68.495" height="68.495" viewBox="0 0 68.495 68.495">
  <path id="Icon_awesome-facebook-square" data-name="Icon awesome-facebook-square" d="M61.156,2.25H7.339A7.339,7.339,0,0,0,0,9.589V63.406a7.339,7.339,0,0,0,7.339,7.339H28.323V47.458H18.691V36.5h9.632V28.144c0-9.5,5.657-14.751,14.321-14.751a58.353,58.353,0,0,1,8.488.74v9.326H46.352c-4.711,0-6.18,2.923-6.18,5.921V36.5H50.688L49.006,47.458H40.172V70.745H61.156a7.339,7.339,0,0,0,7.339-7.339V9.589A7.339,7.339,0,0,0,61.156,2.25Z" transform="translate(0 -2.25)" fill="#fff"/>
</svg>
