<svg xmlns="http://www.w3.org/2000/svg" width="68.978" height="68.978" viewBox="0 0 68.978 68.978">
  <path id="Icon_awesome-whatsapp" data-name="Icon awesome-whatsapp" d="M58.646,12.273A34.192,34.192,0,0,0,4.85,53.521L0,71.228,18.122,66.47a34.077,34.077,0,0,0,16.336,4.157h.015c18.83,0,34.5-15.335,34.5-34.181A34.315,34.315,0,0,0,58.646,12.273Zm-24.173,52.6A28.359,28.359,0,0,1,20,60.912L18.969,60.3,8.222,63.113l2.864-10.485-.677-1.078a28.465,28.465,0,1,1,52.8-15.1C63.2,52.12,50.132,64.869,34.473,64.869ZM50.055,43.59c-.847-.431-5.05-2.494-5.835-2.771-.785-.293-1.355-.431-1.925.431s-2.2,2.771-2.71,3.356c-.493.57-1,.647-1.848.216-5.019-2.51-8.314-4.48-11.625-10.162-.878-1.509.878-1.4,2.51-4.665a1.583,1.583,0,0,0-.077-1.493c-.216-.431-1.925-4.634-2.633-6.343-.693-1.663-1.4-1.432-1.925-1.463-.493-.031-1.062-.031-1.632-.031a3.164,3.164,0,0,0-2.279,1.062,9.6,9.6,0,0,0-2.987,7.129c0,4.2,3.064,8.268,3.48,8.838.431.57,6.02,9.192,14.6,12.9,5.42,2.34,7.544,2.54,10.254,2.14,1.647-.246,5.05-2.063,5.758-4.065a7.143,7.143,0,0,0,.493-4.065C51.471,44.222,50.9,44.006,50.055,43.59Z" transform="translate(0 -2.25)" fill="#fff"/>
</svg>
