<svg xmlns="http://www.w3.org/2000/svg" width="69.005" height="68.99" viewBox="0 0 69.005 68.99">
  <path id="Icon_awesome-instagram" data-name="Icon awesome-instagram" d="M34.505,19.044A17.688,17.688,0,1,0,52.193,36.733,17.66,17.66,0,0,0,34.505,19.044Zm0,29.188A11.5,11.5,0,1,1,46,36.733,11.52,11.52,0,0,1,34.505,48.232ZM57.042,18.321A4.126,4.126,0,1,1,52.917,14.2,4.116,4.116,0,0,1,57.042,18.321Zm11.715,4.187c-.262-5.527-1.524-10.422-5.573-14.455-4.033-4.033-8.929-5.3-14.455-5.573-5.7-.323-22.768-.323-28.464,0C14.754,2.742,9.859,4,5.81,8.038S.514,16.966.237,22.493c-.323,5.7-.323,22.768,0,28.464C.5,56.484,1.761,61.379,5.81,65.412s8.929,5.3,14.455,5.573c5.7.323,22.768.323,28.464,0,5.527-.262,10.422-1.524,14.455-5.573,4.033-4.033,5.3-8.929,5.573-14.455.323-5.7.323-22.753,0-28.449ZM61.4,57.069a11.642,11.642,0,0,1-6.558,6.558c-4.541,1.8-15.317,1.385-20.336,1.385s-15.81.4-20.336-1.385a11.642,11.642,0,0,1-6.558-6.558c-1.8-4.541-1.385-15.317-1.385-20.336s-.4-15.81,1.385-20.336a11.642,11.642,0,0,1,6.558-6.558c4.541-1.8,15.317-1.385,20.336-1.385s15.81-.4,20.336,1.385A11.642,11.642,0,0,1,61.4,16.4c1.8,4.541,1.385,15.317,1.385,20.336S63.2,52.543,61.4,57.069Z" transform="translate(0.005 -2.238)" fill="#fff"/>
</svg>
