<svg xmlns="http://www.w3.org/2000/svg" width="68.99" height="68.99" viewBox="0 0 68.99 68.99">
  <path id="Icon_awesome-phone-alt" data-name="Icon awesome-phone-alt" d="M67.022,48.751,51.93,42.283a3.234,3.234,0,0,0-3.773.93l-6.683,8.166A49.946,49.946,0,0,1,17.6,27.5l8.166-6.683a3.226,3.226,0,0,0,.93-3.773L20.226,1.955A3.256,3.256,0,0,0,16.52.082L2.506,3.316A3.234,3.234,0,0,0,0,6.467,62.516,62.516,0,0,0,62.523,68.99a3.234,3.234,0,0,0,3.153-2.506L68.91,52.47a3.273,3.273,0,0,0-1.888-3.719Z" transform="translate(0 0)" fill="#fff"/>
</svg>
